# xmcd CD database file
#
# Track frame offsets:
#	150
#	27051
#	52403
#
# Disc length: 1302 seconds
#
# Revision: 0
# Processed by: cddbd v1.5.2PL0 Copyright (c) Steve Scherf et al.
# Submitted via: CDex 1.70beta2
#
DISCID=22051403
DTITLE=Miles Davis - La galaxie Miles soixante ans avant -Mon CD
DYEAR=2016
DGENRE=Jazz
TTITLE0=Paul Chambers - Stablemates
TTITLE1=Sonny Rollins - The Most Beautiful Girl in the World
TTITLE2=J.J. Johnson - Jazz Suite for Brass
EXTD=YEAR: 2016
EXTT0=
EXTT1=
EXTT2=
PLAYORDER=
